<?xml version="1.0" encoding="UTF-8"?>
<svg width="17px" height="16px" viewBox="0 0 17 16" version="1.1" xmlns="http://www.w3.org/2000/svg" xmlns:xlink="http://www.w3.org/1999/xlink">
    <!-- Generator: sketchtool 51.3 (57544) - http://www.bohemiancoding.com/sketch -->
    <title>463FB18B-A71F-443D-A726-E47BFD1103B2</title>
    <desc>Created with sketchtool.</desc>
    <defs></defs>
    <g id="Global-Guides" stroke="none" stroke-width="1" fill="none" fill-rule="evenodd">
        <g id="Global-0.6-Iconografia" transform="translate(-1089.000000, -1279.000000)">
            <g id="ic16_filters/-woman-copy-3" transform="translate(1090.000000, 1279.000000)">
                <g id="Group-19">
                    <path d="M12.6996,7.6227 L9.3896,10.9337 C8.7116,11.6107 7.6036,11.6107 6.9266,10.9337 L4.4916,8.4987 C3.8146,7.8217 3.8146,6.7127 4.4916,6.0357 L7.8026,2.7257 C8.4796,2.0477 9.5886,2.0477 10.2656,2.7257 L12.6996,5.1597 C13.3766,5.8367 13.3766,6.9457 12.6996,7.6227 Z" id="Stroke-1" stroke="#333333"></path>
                    <path d="M5.1063,10.1241 L8.1053,7.1251" id="Stroke-3" stroke="#333333" stroke-linecap="round"></path>
                    <path d="M0.4999,11.0914 L3.7779,7.8134" id="Stroke-5" stroke="#333333" stroke-linecap="round"></path>
                    <path d="M3.8265,15.4923 L7.6775,11.6413" id="Stroke-7" stroke="#333333" stroke-linecap="round"></path>
                    <path d="M9.327,2.2643 L11.091,0.5003" id="Stroke-9" stroke="#333333" stroke-linecap="round"></path>
                    <path d="M13.1908,6.128 L15.1858,4.133" id="Stroke-11" stroke="#333333" stroke-linecap="round"></path>
                    <path d="M9.2147,5.025 C9.4967,4.743 9.9537,4.743 10.2357,5.025 C10.5187,5.307 10.5187,5.764 10.2357,6.046 C9.9537,6.328 9.4967,6.328 9.2147,6.046 C8.9327,5.764 8.9327,5.307 9.2147,5.025" id="Fill-13" fill="#333333"></path>
                    <path d="M12.5409,1.6988 C12.8229,1.4168 13.2799,1.4168 13.5619,1.6988 C13.8439,1.9808 13.8439,2.4378 13.5619,2.7198 C13.2799,3.0018 12.8229,3.0018 12.5409,2.7198 C12.2589,2.4378 12.2589,1.9808 12.5409,1.6988" id="Fill-15" fill="#333333"></path>
                    <polyline id="Stroke-17" stroke="#333333" stroke-linecap="round" stroke-linejoin="round" points="1.5199 10.2428 1.6479 13.5648 5.0969 14.2028"></polyline>
                </g>
            </g>
        </g>
    </g>
</svg>