<?xml version="1.0" encoding="UTF-8"?>
<svg width="38px" height="38px" viewBox="0 0 38 38" version="1.1" xmlns="http://www.w3.org/2000/svg" xmlns:xlink="http://www.w3.org/1999/xlink">
    <!-- Generator: sketchtool 51.3 (57544) - http://www.bohemiancoding.com/sketch -->
    <title>9B28AD37-5D39-4BE2-BC3D-916D1AFBDC31</title>
    <desc>Created with sketchtool.</desc>
    <defs></defs>
    <g id="Global-Guides" stroke="none" stroke-width="1" fill="none" fill-rule="evenodd" stroke-linecap="round">
        <g id="Global-0.6-Iconografia" transform="translate(-751.000000, -2992.000000)" stroke="#333333" stroke-width="1.5">
            <g id="Color-Copy-78" transform="translate(750.000000, 2991.000000)">
                <g id="ic16_filters/shoes">
                    <g id="Group-13" transform="translate(1.000000, 1.000000)">
                        <path d="M21.0418,1.1667 L11.1238,12.9047 C10.8448,13.2917 10.2708,13.3017 9.9788,12.9247 L7.1538,8.7647" id="Stroke-1"></path>
                        <path d="M21.3738,12.0319 C21.3698,12.0739 21.3658,12.1159 21.3618,12.1579 C20.8868,16.7969 17.2328,20.6299 12.6188,21.3039 C10.1778,21.6609 7.8818,21.1489 5.9628,20.0509 L5.9628,30.4879 C5.9628,33.9319 8.7808,36.7499 12.2248,36.7499 L30.1598,36.7499 C33.6038,36.7499 36.4208,33.9319 36.4208,30.4879 L36.4208,12.5529 C36.4208,9.1099 33.6038,6.2919 30.1598,6.2919 L27.4648,6.2919 C24.2348,6.2919 21.6648,8.8149 21.3738,12.0319 Z" id="Stroke-3" stroke-linejoin="round"></path>
                        <path d="M13.5731,1.0646 C12.7741,0.8666 11.9441,0.7506 11.0831,0.7506 C5.3761,0.7506 0.7501,5.3766 0.7501,11.0836 C0.7501,14.9256 2.8511,18.2706 5.9631,20.0506" id="Stroke-5"></path>
                    </g>
                </g>
            </g>
        </g>
    </g>
</svg>