<?xml version="1.0" encoding="UTF-8" standalone="no"?>
<!DOCTYPE svg PUBLIC "-//W3C//DTD SVG 1.1//EN" "http://www.w3.org/Graphics/SVG/1.1/DTD/svg11.dtd">
<svg width="100%" height="100%" viewBox="0 0 11 10" version="1.1" xmlns="http://www.w3.org/2000/svg" xmlns:xlink="http://www.w3.org/1999/xlink" xml:space="preserve" xmlns:serif="http://www.serif.com/" style="fill-rule:evenodd;clip-rule:evenodd;stroke-linejoin:round;stroke-miterlimit:1.41421;">
    <g id="Tavola-da-disegno1" serif:id="Tavola da disegno1" transform="matrix(1.0401,0,0,0.909091,0.598968,0)">
        <rect x="-0.576" y="0" width="10.576" height="11" style="fill:none;"/>
        <g id="Path" transform="matrix(-0.679844,-0.777816,0.679842,-0.777819,4.87232,16.6672)">
            <path d="M10,3C10,2.448 9.551,2 8.999,2C8.447,2 8,2.448 8,3L8,5.379C8,5.6 8.171,6.954 7.577,7.55C6.973,8.155 5.602,8 5.378,8L3,8C2.448,8 2,8.448 2,9C2,9.552 2.448,10 3,10L7.999,10C9.103,10 10,9.105 10,8L10,3Z"/>
        </g>
    </g>
</svg>
