<?xml version="1.0" encoding="UTF-8"?>
<svg width="40px" height="40px" viewBox="0 0 40 40" version="1.1" xmlns="http://www.w3.org/2000/svg" xmlns:xlink="http://www.w3.org/1999/xlink">
    <!-- Generator: sketchtool 51.3 (57544) - http://www.bohemiancoding.com/sketch -->
    <title>A293547B-4EFF-4B61-836F-E46FFD4D86CD</title>
    <desc>Created with sketchtool.</desc>
    <defs></defs>
    <g id="Global-Guides" stroke="none" stroke-width="1" fill="none" fill-rule="evenodd">
        <g id="Global-0.6-Iconografia" transform="translate(-521.000000, -2991.000000)" stroke="#333333" stroke-width="1.5">
            <g id="Color-Copy-56" transform="translate(521.000000, 2991.000000)">
                <g id="ic16_filters/shoes">
                    <polygon id="Rectangle-Copy-2" fill="#FFFFFF" points="20 22 39 30.1112467 20 39 1 30.1112467"></polygon>
                    <path d="M6,28 L24.3596191,36.548584" id="Path-20"></path>
                    <path d="M11,26 L29.3596191,34.548584" id="Path-20-Copy"></path>
                    <path d="M15,24 L33.3596191,32.548584" id="Path-20-Copy-2"></path>
                    <polygon id="Rectangle-Copy" fill="#FFFFFF" points="20 12 39 20.1112467 20 29 1 20.1112467"></polygon>
                    <path d="M6.5,17.5 L6.5,22.5" id="Path-20"></path>
                    <path d="M34.5,18.5 L34.5,22.5" id="Path-20-Copy-6"></path>
                    <path d="M11.5,15.5 L11.5,24.5" id="Path-20-Copy-3"></path>
                    <path d="M25.5,14.5 L25.5,26.5" id="Path-20-Copy-5"></path>
                    <path d="M17.5,12.5 L17.5,28.5" id="Path-20-Copy-4"></path>
                    <polygon id="Rectangle" fill="#FFFFFF" points="20 1 39 9.11124674 20 18 1 9.11124674"></polygon>
                </g>
            </g>
        </g>
    </g>
</svg>