<svg xmlns="http://www.w3.org/2000/svg" width="48" height="30" viewBox="0 0 48 30"><title>Tavola disegno 1 copia 6</title><rect x="0.08" y="0.01" width="47.87" height="29.92" style="fill:#fff"/><path d="M10.18,26.41l4.41-.1S23.12,25,24.53,24.1s4.11-5.22,4.11-5.22H39.08V5.63H14.39V18.48" style="fill:none;stroke:#000;stroke-linecap:round;stroke-linejoin:round;stroke-width:0.75px"/><path d="M10.3,19.68a7.44,7.44,0,0,1,1.3-3.11,10.16,10.16,0,0,1,2.61-2.41" style="fill:none;stroke:#000;stroke-linecap:round;stroke-linejoin:round;stroke-width:0.75px"/><path d="M24,17.05H35.81a1.73,1.73,0,0,1,1.72-1.71V9.17a1.73,1.73,0,0,1-1.72-1.71H17.73A1.74,1.74,0,0,1,16,9.17v6.17a4.14,4.14,0,0,1,1.28.63" style="fill:none;stroke:#000;stroke-linejoin:round;stroke-width:0.75px"/><path d="M26.1,15.19a3,3,0,0,0,.79.1,3,3,0,1,0-3-3,3.08,3.08,0,0,0,.06.61" style="fill:none;stroke:#000;stroke-linejoin:round;stroke-width:0.75px"/><path d="M13.71,20.19s1-2.81,2-3.52a6,6,0,0,1,4.41-.5l3.41-2.81s1.51-1.5,2.41-.5.81,1.4.5,1.81S21,20.39,21,20.39" style="fill:none;stroke:#000;stroke-linecap:round;stroke-linejoin:round;stroke-width:0.75px"/><line x1="28.54" y1="18.88" x2="22.46" y2="18.88" style="fill:none;stroke:#000;stroke-linecap:round;stroke-linejoin:round;stroke-width:0.75px"/></svg>