<?xml version="1.0" encoding="utf-8"?>
<!-- Generator: Adobe Illustrator 21.0.2, SVG Export Plug-In . SVG Version: 6.00 Build 0)  -->
<svg version="1.1" id="Livello_1" xmlns="http://www.w3.org/2000/svg" xmlns:xlink="http://www.w3.org/1999/xlink" x="0px" y="0px"
	 viewBox="0 0 66 66" style="enable-background:new 0 0 66 66;" xml:space="preserve">
<style type="text/css">
	.st0{fill:#666666;}
	.st1{fill:none;stroke:#666666;stroke-width:2;stroke-miterlimit:10;}
</style>
<g>
	<path class="st0" d="M26,35h14v2H26V35z"/>
</g>
<g>
	<path class="st0" d="M26,40h2v2h-2V40z"/>
</g>
<g>
	<path class="st0" d="M32,40h2v2h-2V40z"/>
</g>
<g>
	<path class="st0" d="M38,40h2v2h-2V40z"/>
</g>
<g>
	<path class="st0" d="M26,45h2v2h-2V45z"/>
</g>
<g>
	<path class="st0" d="M32,45h2v2h-2V45z"/>
</g>
<g>
	<path class="st0" d="M38,45h2v2h-2V45z"/>
</g>
<g>
	<path class="st0" d="M39,14h2v4h-2V14z"/>
</g>
<g>
	<path class="st1" d="M24,18h18c2.2,0,4,1.8,4,4v26c0,2.2-1.8,4-4,4H24c-2.2,0-4-1.8-4-4V22C20,19.8,21.8,18,24,18z"/>
</g>
<g>
	<path class="st1" d="M33,1c17.7,0,32,14.3,32,32S50.7,65,33,65S1,50.7,1,33S15.3,1,33,1z"/>
</g>
</svg>
