<?xml version="1.0" encoding="utf-8"?>
<!-- Generator: Adobe Illustrator 21.0.2, SVG Export Plug-In . SVG Version: 6.00 Build 0)  -->
<svg version="1.1" id="Livello_1" xmlns="http://www.w3.org/2000/svg" xmlns:xlink="http://www.w3.org/1999/xlink" x="0px" y="0px"
	 viewBox="0 0 66 66" style="enable-background:new 0 0 66 66;" xml:space="preserve">
<style type="text/css">
	.st0{fill:#030202;stroke:#666666;stroke-miterlimit:10;}
	.st1{fill:#0D0B0B;stroke:#666666;stroke-miterlimit:10;}
</style>
<g>
	<path class="st0" d="M41,47.5v-1c4.7,0,8.5-3.8,8.5-8.5s-3.8-8.5-8.5-8.5v-1c5.2,0,9.5,4.3,9.5,9.5S46.2,47.5,41,47.5z"/>
</g>
<g>
	<path class="st1" d="M18,29h23"/>
	<rect x="18" y="28.5" class="st0" width="23" height="1"/>
</g>
<g>
	<polygon class="st0" points="26.6,38.4 17.3,29 25.6,20.6 26.4,21.4 18.7,29 27.4,37.6 	"/>
</g>
<g>
	<path class="st0" d="M33,65.5C15.1,65.5,0.5,50.9,0.5,33S15.1,0.5,33,0.5S65.5,15.1,65.5,33S50.9,65.5,33,65.5z M33,1.5
		C15.6,1.5,1.5,15.6,1.5,33S15.6,64.5,33,64.5S64.5,50.4,64.5,33S50.4,1.5,33,1.5z"/>
</g>
</svg>
