<svg xmlns="http://www.w3.org/2000/svg" width="192" height="56" viewBox="0 0 96 28"><title>geox_logo</title><path d="M0,18.44H4.29c1.54,0,2.85.75,2.85,2.44a2.26,2.26,0,0,1-1.82,2.39v0c1.21.17,1.57,1,1.63,2.11a5.18,5.18,0,0,0,.44,2.4h-1a4.17,4.17,0,0,1-.25-1.45C6.09,25,6,23.58,4.28,23.65H.9V27.8H0ZM.9,22.88H4.23a1.86,1.86,0,0,0,2-1.82c0-1.15-.67-1.86-2-1.86H.9Z" style="fill:#333333"/><path d="M16.07,18.44h6.46v.76H17v3.38h5.21v.76H17V27h5.63v.76H16.07Z" style="fill:#333333"/><path d="M31.58,24.72c0,1.93,1.34,2.52,3.05,2.52,1,0,2.48-.54,2.48-1.9,0-1.06-1-1.48-1.93-1.69l-2.08-.52C32,22.86,31,22.35,31,20.88c0-.92.59-2.64,3.22-2.64,1.86,0,3.46,1,3.46,2.91h-.89A2.32,2.32,0,0,0,34.22,19c-1.21,0-2.34.47-2.34,1.86,0,.88.64,1.26,1.42,1.43l2.27.57c1.33.35,2.43.94,2.43,2.46C38,26,37.73,28,34.42,28c-2.21,0-3.84-1-3.73-3.28Z" style="fill:#333333"/><path d="M46.73,18.44h4.16a2.52,2.52,0,0,1,2.77,2.67,2.52,2.52,0,0,1-2.77,2.68H47.63v4h-.9Zm.9,4.59h3.06a1.82,1.82,0,0,0,2.08-1.92,1.82,1.82,0,0,0-2.08-1.91H47.63Z" style="fill:#333333"/><path d="M62.37,18.44h.9V27.8h-.9Z" style="fill:#333333"/><path d="M72.54,18.44h4.28c1.53,0,2.84.75,2.84,2.44a2.25,2.25,0,0,1-1.82,2.39v0c1.22.17,1.57,1,1.64,2.11a5.31,5.31,0,0,0,.43,2.4h-1a4.17,4.17,0,0,1-.25-1.45c-.06-1.31-.19-2.77-1.87-2.7H73.43V27.8h-.89Zm.89,4.44h3.33a1.86,1.86,0,0,0,2-1.82c0-1.15-.66-1.86-2-1.86H73.43Z" style="fill:#333333"/><path d="M91.34,18.44h1L96,27.8H95L93.9,24.89H89.65L88.52,27.8h-1Zm2.26,5.69-1.81-4.8-1.87,4.8Z" style="fill:#333333"/><path d="M59.64,0C52.81,0,47.28,3.45,47.28,7.7s5.53,7.7,12.36,7.7S72,12,72,7.7,66.47,0,59.64,0Zm0,13.23c-3.8,0-6.88-2.47-6.88-5.51S55.85,2.2,59.65,2.2s6.88,2.47,6.88,5.52S63.45,13.23,59.65,13.23Z" style="fill:#333333"/><path d="M23.62,6.6H11.52a.55.55,0,0,0-.54.56V8.25a.55.55,0,0,0,.54.56h7.11A.38.38,0,0,1,19,9.2a.82.82,0,0,1,0,.18c-.81,2.24-3.3,4.07-6.69,4.07-3.81,0-6.79-2.69-6.79-5.73s3-5.71,7-5.71a8.38,8.38,0,0,1,5.39,2.11,1,1,0,0,0,.66.28h5.09a.39.39,0,0,0,.39-.4c0-.26-.28-.45-.45-.61A15.6,15.6,0,0,0,13.89,0H12.52C5.6,0,0,3.45,0,7.7s5.43,7.7,12.34,7.7S24.73,12,24.73,7.7A1.1,1.1,0,0,0,23.62,6.6Z" style="fill:#333333"/><path d="M86.66,7.68A.75.75,0,0,1,87,7.06L95.8,1.33A.42.42,0,0,0,96,1a.42.42,0,0,0-.44-.43H89a1.4,1.4,0,0,0-.92.41L84.32,5.15a.91.91,0,0,1-.69.34.93.93,0,0,1-.7-.34L79.16.94a1.4,1.4,0,0,0-.92-.41H71.69a.42.42,0,0,0-.44.43.42.42,0,0,0,.2.37l8.76,5.73a.69.69,0,0,1,0,1.23L71.45,14a.39.39,0,0,0-.2.36.42.42,0,0,0,.44.43h6.55a1.4,1.4,0,0,0,.92-.41l3.77-4.21a.93.93,0,0,1,.7-.34.91.91,0,0,1,.69.34l3.77,4.21a1.4,1.4,0,0,0,.92.41h6.55a.42.42,0,0,0,.44-.43.39.39,0,0,0-.2-.36L87,8.29A.75.75,0,0,1,86.66,7.68Z" style="fill:#333333"/><path d="M46,.53H28.39a1.1,1.1,0,0,0-1.1,1.1V13.77a1.1,1.1,0,0,0,1.1,1.1H46a.55.55,0,0,0,.55-.55V13.21a.55.55,0,0,0-.55-.55H33.35a.55.55,0,0,1-.55-.55V9.35a.55.55,0,0,1,.55-.55H43.84a.55.55,0,0,0,.55-.55V7.15a.55.55,0,0,0-.55-.55H33.35a.55.55,0,0,1-.55-.55V3.29a.56.56,0,0,1,.55-.56H46a.54.54,0,0,0,.55-.55V1.08A.55.55,0,0,0,46,.53Z" style="fill:#333333"/></svg>