<svg xmlns="http://www.w3.org/2000/svg" width="54" height="34" viewBox="0 0 54 34"><title>visa</title><path d="M2.11,0H51.89A2.12,2.12,0,0,1,54,2.12V31.87A2.12,2.12,0,0,1,51.89,34H2.11A2.12,2.12,0,0,1,0,31.87V2.12A2.12,2.12,0,0,1,2.11,0Z" style="fill:#fff;fill-rule:evenodd"/><path d="M33.65,12.19q-.14,1.11-.36,2.13a5.68,5.68,0,0,0-2.38-.47c-.61,0-1.34.28-1.35.83s1,1,1.55,1.25c1,.48,2.09,1.13,2.18,2.45a3.1,3.1,0,0,1-.93,2.39c-1.41,1.34-4.54,1.48-6.68.62q.2-1.07.36-2.19a6.23,6.23,0,0,0,3.21.68c.57-.07,1.26-.4,1.24-1s-1.35-1.14-2-1.51a2.88,2.88,0,0,1-1.71-2.24,2.87,2.87,0,0,1,.62-1.87C28.48,11.9,31.32,11.41,33.65,12.19Z" style="fill:#3b58a4;fill-rule:evenodd"/><path d="M21.3,21.78,22.93,12h2.66L24,21.78Z" style="fill:#3b58a4;fill-rule:evenodd"/><path d="M19.08,12c-.92,2.17-1.7,4.47-2.64,6.61l-.28-1.28v0l0,.23a6,6,0,0,0-1-1.9l0,0-.24-.3-.17-.18a9.93,9.93,0,0,0-2.25-1.86l2.37,8.52h2.85c1.34-3.3,2.79-6.5,4.14-9.78Z" style="fill:#3b58a4;fill-rule:evenodd"/><path d="M42.61,21.81H40.17c-.16-.47-.2-1-.36-1.51H36.5l-.62,1.51h-2.8l3.63-8.38c.16-.37.45-.87.57-1.09s.9-.36,1.2-.36h2Zm-4-7.12-1.35,3.64h2.19Z" style="fill:#3b58a4;fill-rule:evenodd"/><path d="M14.12,12H9.88v.21c2.44.49,5.51,2.61,6.33,5.27L15.3,13A1.09,1.09,0,0,0,14.12,12Z" style="fill:#f4a33b;fill-rule:evenodd"/></svg>