<svg xmlns="http://www.w3.org/2000/svg" width="54" height="34" viewBox="0 0 54 34"><title>mastercard</title><path d="M2.11,0H51.89A2.12,2.12,0,0,1,54,2.12V31.87A2.12,2.12,0,0,1,51.89,34H2.11A2.12,2.12,0,0,1,0,31.87V2.12A2.12,2.12,0,0,1,2.11,0Z" style="fill:#1f386b;fill-rule:evenodd"/><path d="M27.13,23.24a7.16,7.16,0,0,0,.73-.75H26.38a4.8,4.8,0,0,1-.69-1h2.88s.28-.44.47-.81H25.23a5.67,5.67,0,0,1-.42-1h4.64a7.09,7.09,0,0,0,.23-.78H24.59a8.61,8.61,0,0,1,.22-4.54h4.61a6.11,6.11,0,0,0-.32-.82h-4c.16-.33.39-.75.53-1h2.9a6.78,6.78,0,0,0-.56-.76H26.22a6.52,6.52,0,0,1,.9-.94h0a8.29,8.29,0,1,1,0,12.34Z" style="fill:#ef8114"/><path d="M29.87,17.06a8.29,8.29,0,1,1-8.29-8.29,8.29,8.29,0,0,1,8.29,8.29Z" style="fill:#e40e1b"/><path d="M23.18,16.06l-.13.62-.73,0s-.36.08-.36.21.27.29.67.43a.68.68,0,0,1,.38.82c0,.27-.1.84-1.26.86a3.57,3.57,0,0,1-1-.1l.15-.64a2.91,2.91,0,0,0,1.05.08c.19-.11.42-.3.06-.43s-1-.34-1-.85a.92.92,0,0,1,.63-.94,3.48,3.48,0,0,1,1.53,0Z" style="fill:#fff"/><polygon points="17.44 18.92 16.59 18.92 17.08 16.49 16.04 18.91 15.45 18.91 15.31 16.39 14.8 18.92 14 18.92 14.76 15.21 15.72 15.21 16.07 17.34 17.19 15.21 18.19 15.21 17.44 18.92 17.44 18.92" style="fill:#fff"/><path d="M23.94,19a.93.93,0,0,1-.59-.15.58.58,0,0,1-.18-.46,1,1,0,0,1,0-.15c0-.05,0-.11,0-.18l.51-2.38h.79l-.12.46h.74l-.12.59h-.74l-.2,1,0,.21a1,1,0,0,0,0,.18.24.24,0,0,0,.07.21.38.38,0,0,0,.23.06l.16,0,.16-.06h.07l-.12.6a1.64,1.64,0,0,1-.28.06l-.35,0Z" style="fill:#fff"/><path d="M29.63,16.91c-.17-.11-.56-.09-.64.14l-.38,1.87h-.79l.57-2.8h.79l0,.23a1,1,0,0,1,.74-.22,2.69,2.69,0,0,0-.28.78Z" style="fill:#fff"/><path d="M31.13,19a1.36,1.36,0,0,1-1-.37,1.45,1.45,0,0,1-.36-1.06,3,3,0,0,1,.16-1,2.42,2.42,0,0,1,.44-.77,2,2,0,0,1,.66-.49,1.82,1.82,0,0,1,.8-.18,2.44,2.44,0,0,1,.63.08l.28.1-.18.88a1.29,1.29,0,0,0-.28-.23,1,1,0,0,0-.49-.12,1,1,0,0,0-.81.45,1.89,1.89,0,0,0-.32,1.14,1,1,0,0,0,.18.65.67.67,0,0,0,.51.19,1.26,1.26,0,0,0,.57-.13l.25-.15-.18.84-.14.05-.29.08a2.47,2.47,0,0,1-.39,0Z" style="fill:#fff"/><path d="M19.39,18.82l-.09.05-.23.09a1.49,1.49,0,0,1-.3,0,.68.68,0,0,1-.5-.19.7.7,0,0,1-.2-.51,1.08,1.08,0,0,1,.14-.57,1,1,0,0,1,.41-.36,2,2,0,0,1,.6-.19l.16,0a5.1,5.1,0,0,1,.6-.06A.17.17,0,0,1,20,17,.25.25,0,0,0,20,17a.26.26,0,0,0-.14-.25,1.1,1.1,0,0,0-.43-.07h0a1.64,1.64,0,0,0-.39.07l-.35.13h-.07l.12-.66a3,3,0,0,1,.43-.09,1.72,1.72,0,0,1,.28,0,2,2,0,0,1,.3,0,1.67,1.67,0,0,1,.85.17.58.58,0,0,1,.27.54,1,1,0,0,1,0,.13l0,.14-.39,1.9h-.79l.06-.3-.18.13-.1.07Zm0-1.16-.22.06a.42.42,0,0,0-.28.42.22.22,0,0,0,.09.2.55.55,0,0,0,.28.06l.12,0,.12,0,.25-.16.12-.6-.39.05Z" style="fill:#fff"/><path d="M26.24,16.61a.52.52,0,0,0-.28.13,1,1,0,0,0-.26.42h1.07s0-.05,0-.08,0-.05,0-.07a.42.42,0,0,0-.11-.31.43.43,0,0,0-.31-.1Zm0,1.76h.12a1.23,1.23,0,0,0,.49-.1,2.19,2.19,0,0,0,.4-.22h.09l-.15.72a2.07,2.07,0,0,1-.48.17,2.3,2.3,0,0,1-.47.06h-.07a1.36,1.36,0,0,1-1-.32,1.12,1.12,0,0,1-.34-.87,2.14,2.14,0,0,1,.11-.7,1.73,1.73,0,0,1,.32-.57,1.53,1.53,0,0,1,.5-.37,1.91,1.91,0,0,1,.45-.13h.22a1.2,1.2,0,0,1,.83.25,1,1,0,0,1,.28.74,2,2,0,0,1,0,.33,3,3,0,0,1-.08.32H25.63v.06a.59.59,0,0,0,.18.45.71.71,0,0,0,.43.16Z" style="fill:#fff"/><path d="M33.67,18.82l-.1.05-.23.09a1.48,1.48,0,0,1-.3,0,.69.69,0,0,1-.5-.19.7.7,0,0,1-.19-.51,1.08,1.08,0,0,1,.14-.57,1,1,0,0,1,.41-.36,2,2,0,0,1,.61-.19l.16,0a5,5,0,0,1,.6-.06.49.49,0,0,0,0-.05s0,0,0-.07a.27.27,0,0,0-.15-.25,1.1,1.1,0,0,0-.43-.07h0a1.53,1.53,0,0,0-.39.07l-.35.13h-.07l.11-.66a2.92,2.92,0,0,1,.43-.09,1.72,1.72,0,0,1,.27,0,2,2,0,0,1,.3,0,1.68,1.68,0,0,1,.85.17.59.59,0,0,1,.27.54,1.06,1.06,0,0,1,0,.13l0,.14-.39,1.9h-.79l.06-.3-.18.13-.1.07Zm0-1.16-.22.06a.45.45,0,0,0-.2.16.46.46,0,0,0-.07.27.21.21,0,0,0,.1.2.52.52,0,0,0,.27.06l.13,0,.12,0a1.55,1.55,0,0,0,.25-.16l.12-.6-.4.05Z" style="fill:#fff"/><path d="M37,16.91c-.17-.11-.56-.09-.64.14L36,18.92h-.79l.57-2.8h.79l0,.23a1,1,0,0,1,.74-.22,2.64,2.64,0,0,0-.28.78Z" style="fill:#fff"/><path d="M38.58,16.72l-.11.06a.8.8,0,0,0-.26.25,1.24,1.24,0,0,0-.14.38,1.7,1.7,0,0,0-.06.44.54.54,0,0,0,.1.36.4.4,0,0,0,.32.12.4.4,0,0,0,.16,0l.07,0a1.49,1.49,0,0,0,.22-.13l.28-1.38a.65.65,0,0,0-.17-.06.57.57,0,0,0-.18,0,.73.73,0,0,0-.23,0Zm0,2.05-.2.13-.19.07L38,19a.72.72,0,0,1-.58-.26,1.21,1.21,0,0,1-.21-.75,2.3,2.3,0,0,1,.11-.75,2.08,2.08,0,0,1,.31-.62,1.5,1.5,0,0,1,.46-.42,1.14,1.14,0,0,1,.53-.16h0a1.25,1.25,0,0,1,.35,0,1.27,1.27,0,0,1,.31.15l.18-1h.79l-.73,3.66h-.79l.06-.29-.2.14Z" style="fill:#fff;fill-rule:evenodd"/></svg>