<svg xmlns="http://www.w3.org/2000/svg" width="54" height="34" viewBox="0 0 54 34"><title>paypal</title><path d="M2.11,0H51.89A2.12,2.12,0,0,1,54,2.12V31.87A2.12,2.12,0,0,1,51.89,34H2.11A2.12,2.12,0,0,1,0,31.87V2.12A2.12,2.12,0,0,1,2.11,0Z" style="fill:#fff;fill-rule:evenodd"/><path d="M14.5,15.68c-.14.94-.86.94-1.56.94h-.4l.28-1.76a.22.22,0,0,1,.22-.18h.18c.47,0,.92,0,1.15.27A.87.87,0,0,1,14.5,15.68Zm-.3-2.46H11.57a.36.36,0,0,0-.36.31l-1.06,6.72a.22.22,0,0,0,.22.25h1.25a.36.36,0,0,0,.36-.31l.29-1.81a.36.36,0,0,1,.36-.31h.83a2.69,2.69,0,0,0,3-2.49,2,2,0,0,0-.33-1.69A2.43,2.43,0,0,0,14.19,13.22Z" style="fill:#263c7f"/><path d="M20.28,18.09a1.4,1.4,0,0,1-1.42,1.2,1,1,0,0,1-1-1.22,1.41,1.41,0,0,1,1.41-1.21,1.06,1.06,0,0,1,.84.34A1.09,1.09,0,0,1,20.28,18.09ZM22,15.64H20.77a.22.22,0,0,0-.22.18l-.06.35-.09-.13a1.79,1.79,0,0,0-1.48-.53,2.89,2.89,0,0,0-2.8,2.52A2.37,2.37,0,0,0,16.6,20a2,2,0,0,0,1.58.64,2.4,2.4,0,0,0,1.74-.72l-.06.35a.22.22,0,0,0,.22.25h1.13a.36.36,0,0,0,.36-.31l.68-4.3A.22.22,0,0,0,22,15.64Z" style="fill:#263c7f"/><path d="M28.71,15.64H27.45a.37.37,0,0,0-.3.16l-1.74,2.56-.74-2.46a.37.37,0,0,0-.35-.26H23.08a.22.22,0,0,0-.21.29L24.27,20,23,21.86a.22.22,0,0,0,.18.35H24.4a.36.36,0,0,0,.3-.16L28.89,16A.22.22,0,0,0,28.71,15.64Z" style="fill:#263c7f"/><path d="M33.19,15.68c-.14.94-.86.94-1.56.94h-.4l.28-1.76a.22.22,0,0,1,.22-.18h.18c.47,0,.92,0,1.15.27A.87.87,0,0,1,33.19,15.68Zm-.3-2.46H30.27a.36.36,0,0,0-.36.31l-1.06,6.72a.22.22,0,0,0,.22.25h1.35a.25.25,0,0,0,.25-.22l.3-1.91a.36.36,0,0,1,.36-.31h.83a2.69,2.69,0,0,0,3-2.49,2,2,0,0,0-.33-1.69A2.43,2.43,0,0,0,32.89,13.22Z" style="fill:#179bd7"/><path d="M39,18.09a1.4,1.4,0,0,1-1.42,1.2,1,1,0,0,1-1-1.22,1.41,1.41,0,0,1,1.41-1.21,1.06,1.06,0,0,1,.84.34A1.08,1.08,0,0,1,39,18.09Zm1.75-2.44H39.47a.22.22,0,0,0-.22.18l-.06.35-.09-.13a1.79,1.79,0,0,0-1.48-.53,2.89,2.89,0,0,0-2.8,2.52A2.37,2.37,0,0,0,35.3,20a2,2,0,0,0,1.58.64,2.4,2.4,0,0,0,1.74-.72l-.06.35a.22.22,0,0,0,.22.25H39.9a.36.36,0,0,0,.36-.31l.68-4.3A.22.22,0,0,0,40.73,15.64Z" style="fill:#179bd7"/><path d="M42.21,13.4l-1.08,6.85a.22.22,0,0,0,.22.25h1.08a.36.36,0,0,0,.36-.31l1.06-6.72a.22.22,0,0,0-.22-.25H42.42A.22.22,0,0,0,42.21,13.4Z" style="fill:#179bd7"/></svg>