<?xml version="1.0" encoding="UTF-8" standalone="no"?><!DOCTYPE svg PUBLIC "-//W3C//DTD SVG 1.1//EN" "http://www.w3.org/Graphics/SVG/1.1/DTD/svg11.dtd"><svg width="100%" height="100%" viewBox="0 0 16 12" version="1.1" xmlns="http://www.w3.org/2000/svg" xmlns:xlink="http://www.w3.org/1999/xlink" xml:space="preserve" xmlns:serif="http://www.serif.com/" style="fill-rule:evenodd;clip-rule:evenodd;"><g id="Photo"><path id="Path-11" d="M0.8,8.531l0,1.9l3.9,0c0,-0.369 0,-0.553 0,-0.553c1.893,0 4.303,0.553 6.616,0.553c1.542,0 2.899,-0.155 4.072,-0.464l0,-1.255c-1.826,0.297 -3.23,0.446 -4.213,0.446c-1.474,0 -4.679,-0.627 -6.475,-0.627c-1.197,0 -2.497,0 -3.9,0Z" style="fill:none;stroke:#333;stroke-width:1px;"/><path id="Path-13" d="M15.16,8.957c0.12,-1.219 -0.303,-1.998 -1.271,-2.338c-1.451,-0.511 -3.486,-0.599 -4.142,-1.047" style="fill:none;stroke:#333;stroke-width:1px;"/><path id="Path-14" d="M1.114,8.51c-0.388,-0.379 -0.582,-0.871 -0.582,-1.477c0,-0.605 0.228,-1.879 0.686,-3.821l5.344,0c0.733,0.448 1.335,0.866 1.807,1.255c0.473,0.39 0.939,0.682 1.399,0.876l0,1.942c-2.577,-0.509 -4.18,-0.1 -4.809,1.225" style="fill:none;stroke:#333;stroke-width:1px;"/><path id="Path-15" d="M7.424,3.833l-0.757,0.8" style="fill:none;stroke:#333;stroke-width:1px;stroke-linecap:round;"/><path id="Path-15-Copy" d="M9.024,4.9l-0.757,0.8" style="fill:none;stroke:#333;stroke-width:1px;stroke-linecap:round;"/></g></svg>