<?xml version="1.0" encoding="UTF-8"?>
<svg width="16px" height="16px" viewBox="0 0 16 16" version="1.1" xmlns="http://www.w3.org/2000/svg" xmlns:xlink="http://www.w3.org/1999/xlink">
    <!-- Generator: Sketch 51.3 (57544) - http://www.bohemiancoding.com/sketch -->
    <title>ic16_filters/SizeShoes</title>
    <desc>Created with Sketch.</desc>
    <defs></defs>
    <g id="ic16_filters/SizeShoes" stroke="none" stroke-width="1" fill="none" fill-rule="evenodd">
        <g id="Photo" transform="translate(0.000000, 4.266667)" stroke="#333333">
            <path d="M0.800455729,5.76451823 L0.800455729,7.6639499 L4.70008826,7.6639499 C4.70008826,7.29566559 4.70008826,7.11152344 4.70008826,7.11152344 C6.59348958,7.11152344 9.00286458,7.6639499 11.3158203,7.6639499 C12.8577908,7.6639499 14.2153429,7.50929994 15.3884766,7.2 L15.3884766,5.94492188 C13.5620877,6.24279514 12.1575521,6.39173177 11.1748698,6.39173177 C9.70084635,6.39173177 6.49594476,5.76451823 4.70008826,5.76451823 C3.5028506,5.76451823 2.20297309,5.76451823 0.800455729,5.76451823 Z" id="Path-11"></path>
            <path d="M15.160026,6.18997396 C15.2801649,4.97165799 14.8565321,4.19231771 13.8891276,3.85195313 C12.4380208,3.34140625 10.4027344,3.25299479 9.74674479,2.80553385" id="Path-13"></path>
            <path d="M1.11425781,5.7436849 C0.725889757,5.36477865 0.531705729,4.87243924 0.531705729,4.26666667 C0.531705729,3.6608941 0.760416667,2.38708767 1.21783854,0.445247396 C2.25208333,0.445247396 3.13381076,0.445247396 3.86302083,0.445247396 C4.5922309,0.445247396 5.49199219,0.445247396 6.56230469,0.445247396 C7.29459635,0.893033854 7.8968967,1.31154514 8.36920573,1.70078125 C8.84151476,2.09001736 9.30768229,2.38183594 9.76770833,2.57623698 L9.76770833,4.51809896 C7.19088542,4.00946181 5.58812934,4.41799045 4.9594401,5.7436849" id="Path-14"></path>
            <path d="M7.42395833,1.06666667 L6.66666667,1.86666667" id="Path-15" stroke-linecap="round"></path>
            <path d="M9.02395833,2.13333333 L8.26666667,2.93333333" id="Path-15-Copy" stroke-linecap="round"></path>
        </g>
        <path d="M14.5,15.0666667 L1.5,15.0666667" id="Path-16-Copy-2" stroke="#333333" stroke-linecap="round"></path>
    </g>
</svg>