<?xml version="1.0" encoding="UTF-8"?>
<svg width="33px" height="40px" viewBox="0 0 33 40" version="1.1" xmlns="http://www.w3.org/2000/svg" xmlns:xlink="http://www.w3.org/1999/xlink">
    <!-- Generator: sketchtool 51.3 (57544) - http://www.bohemiancoding.com/sketch -->
    <title>8DF26E62-3336-4AC7-BC24-B99B0A5CDC57</title>
    <desc>Created with sketchtool.</desc>
    <defs></defs>
    <g id="Global-Guides" stroke="none" stroke-width="1" fill="none" fill-rule="evenodd">
        <g id="Global-0.6-Iconografia" transform="translate(-1172.000000, -2991.000000)" fill="#FFFFFF" stroke="#333333" stroke-width="1.5">
            <g id="Color-Copy-81" transform="translate(1169.000000, 2991.000000)">
                <g id="ic16_filters/shoes">
                    <g id="Group" transform="translate(20.398185, 19.201364) rotate(-37.000000) translate(-20.398185, -19.201364) translate(9.398185, -0.798636)">
                        <path d="M8.40272898,11.9694657 C8.40272898,4.35862581 10.5281019,0.796369954 14.0234839,0.796369954 C17.5188658,0.796369954 20.6697623,7.37547152 21.4779243,11.9694657 C22.2860863,16.5634598 8.40272898,19.5803055 8.40272898,11.9694657 Z" id="Path-19"></path>
                        <path d="M15.8305664,34.71875 C15.8305664,36.9786228 15.3962402,40 11.4096599,40 C7.42307959,40 6.33763086,38.5501858 5.86693555,35.5495605 C5.39624023,32.5489353 5.86693555,31.0809484 5.86693555,28.3327637 C5.86693555,25.5845789 1,20.7839355 1,13.1730957 C1,5.56225586 3.12537295,2 6.62075489,2 C10.1161368,2 13.3756193,6.97094727 14.1837813,11.5649414 C14.9919434,16.1589355 14.5695801,22.4194966 14.5695801,25.3503418 C14.5695801,28.281187 15.8305664,32.4588772 15.8305664,34.71875 Z" id="Path-19" fill-opacity="0.5"></path>
                        <path d="M10.5687353,33.1583367 C10.5687353,35.4182095 10.1344091,38.4395867 6.14782881,38.4395867 C2.16124849,38.4395867 1.07579976,36.9897724 0.605104446,33.9891472 C0.134409135,30.988522 0.605104446,29.3792839 0.605104446,28.5062371 C0.605104446,27.6331902 9.45081539,27.6617546 9.45081539,28.1239128 C9.45081539,28.586071 10.5687353,30.8984638 10.5687353,33.1583367 Z" id="Path-19"></path>
                    </g>
                </g>
            </g>
        </g>
    </g>
</svg>